<svg xmlns="http://www.w3.org/2000/svg" viewBox="0 0 627.56 926.18"><defs><style>.cls-1{fill:none;stroke:red;}.cls-1,.cls-3{stroke-miterlimit:10;}.cls-2{font-size:35.49px;fill:blue;font-family:OCRAExtended, OCR A Extended;}.cls-3{stroke:#fff;}.cls-4{fill:#fff;}</style></defs><title>Entwurf Logo</title><g id="Ebene_5" data-name="Ebene 5"><path class="cls-1" d="M759.67,678q21.24,18.09,42.45,36.22l1.78,1.52,5,59.75Q776.42,814.23,744,853a13.91,13.91,0,0,1-6.15,2.82,14.16,14.16,0,0,1-8.8-1.29l-70-59.43A20,20,0,0,1,658,782.46l12.11-13.81a15.76,15.76,0,0,1-.52-15L704,712.73l8.1,6.59,34.1-40.47a16.93,16.93,0,0,1,6.74-1.86A17.12,17.12,0,0,1,759.67,678Z" transform="translate(-181.83 0.5)"/><path class="cls-1" d="M808.17,774.6l-31.74-26,27.12-32.47Z" transform="translate(-181.83 0.5)"/><path class="cls-1" d="M712.1,719.32,790,785.22l-29,34.67L683.12,754l-1.75,2q-5.62,6.5-11.3,12.61a11.84,11.84,0,0,1-.52-15,11.4,11.4,0,0,1,6.47-2.09,11.52,11.52,0,0,1,7.1,2.46" transform="translate(-181.83 0.5)"/><text class="cls-2" transform="matrix(0.76, 0.64, -0.64, 0.76, 502.38, 739.16)">CLASS</text></g><g id="Ebene_3" data-name="Ebene 3"><path class="cls-3" d="M540.69,567.77c-1.18,8.94-.45,11.25,5.54,59.34,6.69,53.75,10,80.62,11.08,93.36,4.21,51.77,8.12,107.24-16.62,166.16A245.83,245.83,0,0,1,528,912.44c-234.4,34.54-283.95-9.28-297.49-35.31-10.27-19.73-4.6-38.41-27.69-107.6C189,728,179.57,712.64,183.07,688.82c5-33.94,32.22-58,53.8-72.79L467.11,452.25a165.43,165.43,0,0,1,49-55.38,86.16,86.16,0,0,1-7.91-19.78c-6.77-26,.63-48.46,4.75-58.55q3.36-52.43,6.73-104.84a34.64,34.64,0,0,0-9.1-25.71l-36.79-26.11L454.45,187.2l-21.36-19,22.15-34L242.41,0h79.91L474.23,96.21V59l9.5,1.58Q496.38,67.34,509,74.05q-5.93,17-11.86,34l22.94,3.16,3.17,9.5A27,27,0,0,1,536,120c3.57.65,7.79,1.41,10.28,4.74,2.77,3.71.47,6.68,3.17,9.5s6.11,1,11.07,3.16c2.46,1.08,5.77,3.34,8.71,8.7,3.47.72,8.18,2.31,11.07,6.33,4,5.53,1.24,11.08,4,18.2,1.48,3.89,4.86,9,13.45,13.45a22.38,22.38,0,0,1-13.45,26.11,130,130,0,0,0,3.16,30.07,146.94,146.94,0,0,0,7.12,22.15c4.29,11.39,8.56,28.48,7.92,53a300.44,300.44,0,0,1,.79,92.18l-5.54,14.64a355.81,355.81,0,0,1-15,48.26C563.15,520.23,545.36,532.42,540.69,567.77Z" transform="translate(-181.83 0.5)"/><path class="cls-3" d="M298,463.9c-1.59.15-3.84.3-6.54.31-6.51,0-28.65-.16-47.79-15.61a69.22,69.22,0,0,1-19.37-25.21c-1.6-4.52-3.87-11.24-6.22-19.49a393,393,0,0,1-9.89-46.68c-1.32-8.53-5.45-36.65-11.84-48.28a65.69,65.69,0,0,0-4.38-7c-5.16-6.92-9.66-9.29-9.1-10.42.67-1.32,7.82,0,14.25,3.56s10.58,8.61,14.9,15.3c2.73,4.23,12.88,20.53,21.25,53.42,1.33,5.23,1.12,5.16,2,7.76,2.2,6.87,7,21.83,20,33.76,15.88,14.54,35.18,16.53,42.73,16.88A77.82,77.82,0,0,1,338,369.48a22.85,22.85,0,0,1,20.05-21.1c9.53-1.7,17.16,2,20.57,3.7a38.73,38.73,0,0,1,13.71,11.6,67.71,67.71,0,0,1,41.15,36.92,59.46,59.46,0,0,0,30.59-27.42,128.32,128.32,0,0,0,3.16-59.61,106.69,106.69,0,0,1,2.64-39c2.72-10.27,6-15.62,7.91-18.46a30.58,30.58,0,0,1,6-7.2c.55-.47,6.77-5.65,8.86-4,1.46,1.12.24,5.08-.35,6.76a51.81,51.81,0,0,0-3.43,7.12,57.48,57.48,0,0,0-2.64,31.13c4.49,25.49,6.67,30.39,8.44,41.67a152.83,152.83,0,0,1-1.58,54.33,160.4,160.4,0,0,1-13.71,40.08,76.94,76.94,0,0,1-19,17.94,75.7,75.7,0,0,1-14.25,7.38q1.05,2.86,2.09,5.73c.74,2.18,1.46,4.49,2.13,6.93.61,2.19,1.13,4.3,1.59,6.33A92.07,92.07,0,0,1,463,478.67c5.15,4.58,11.76,10.46,16.36,19.52a52.73,52.73,0,0,1,5.27,27.43A54.13,54.13,0,0,0,464.1,500.3a124.8,124.8,0,0,0,4.22,17.4c5.95,18.6,13.63,27.34,19,38.51,4.65,9.68,9.1,24.4,7.38,45.89l-13.71-28A96.38,96.38,0,0,1,475.7,610a116.23,116.23,0,0,0-19.51-49A176,176,0,0,1,471,603.42l-9.76-9.5a31.64,31.64,0,0,1-1.85,18.46,30,30,0,0,1-5,7.92q-2.77-6.85-5.54-13.72-1,9.52-1.91,19.06c-.15,1.82-.31,3.65-.46,5.47l-2.64,5.27-8.7-13.18q-.4,8.17-.79,16.35L431.4,644,420.32,633l1.32,18.46-14.24-19q-.93,6.86-1.85,13.71l-5.8-11.6a59.79,59.79,0,0,0-5.28,5,60.43,60.43,0,0,0-6.06,7.65,85.76,85.76,0,0,1-12.93-16.35L366,636.12a18,18,0,0,0-1.84-7.16,24.55,24.55,0,0,0-3.3-4.71,43.35,43.35,0,0,0-4.16-4.35q-1.49-2.86-3-5.74l-3.5,2.82-.66-5.39-4.75,3.17c-.66-2-1.31-4.09-2-6.13l-6.53,7.71L334,609.22l-4.88-3.43c-.79,2.38-1.66,4.85-2.64,7.39q-1.17,3-2.38,5.8l-7.64-9a39.29,39.29,0,0,1,1,11.61c0,.74-.38,6.2-1.58,6.33-.76.07-1-2.1-3.3-5.28-1.4-1.91-2.07-2.13-3.95-4.55a36.72,36.72,0,0,1-2.58-3.76l-4.15-.59a14.08,14.08,0,0,1-3.16-4.55,14.75,14.75,0,0,1-.61-9.62,26.72,26.72,0,0,0-4.93,9.62,27.79,27.79,0,0,0,1.05,17.41l-6.16-3.23-5.18-2.71-2-3.76-2.37,1L275,611.4l-4.15.59c0-.59.1-1.18.16-1.77.14-1.58.29-3.17.43-4.76l-3-10.52a22,22,0,0,1,1-7.87c2.13-6.57,6.36-8.3,10.29-15,1.41-2.43,4-6.78,4.22-12.13.3-7.33-3.82-9.8-8.71-21.1-4.11-9.51-6.71-15.51-5-22.15,1.16-4.53,5.19-8.62,13.19-16.62,5-5,9.48-8.93,12.66-11.6a211.75,211.75,0,0,1,23.74-19.52c14.93-10.56,25.58-18.09,41.67-21.89,17.34-4.09,31.76-1.66,39.56-.26a112.63,112.63,0,0,1,31.71,10.92A113.94,113.94,0,0,1,452,470.23c-.21-1-.5-2.19-.87-3.64s-1-3.92-2-7c-.57-1.8-1.09-3.22-2-5.73-.39-1.08-.71-2-.95-2.6a104.52,104.52,0,0,0-32.7-17.67c-45.85-14.86-86.14,8.41-92.57,12.27A115.74,115.74,0,0,0,298,463.9c-.19,3.49-.43,7.37-.74,11.6-.46,6.29-1.07,12.93-1.11,12.93S296.38,483.91,298,463.9Z" transform="translate(-181.83 0.5)"/><path class="cls-3" d="M368.24,678.78a106.91,106.91,0,0,1,49.29,24.81,150,150,0,0,1,47.47,39,182.16,182.16,0,0,1,83.87,25.84c6.36,1.88,16,4.59,28,7.39,8.72,2,10,2.09,19,4.22C608,783,616.5,785,626.93,788.52c14.41,4.9,15.15,6.83,24.27,9a79.68,79.68,0,0,0,26.37,1.59c2.93-3.1,9.45-10,16.35-17.41,1.22-1.31,3.52-5,7.87-8.5a41,41,0,0,1,7.63-4.88c3.49.43,8.32,1.13,14,2.3,21.43,4.38,24.06,8.93,24.79,10.55a12.46,12.46,0,0,1,.53,7.91c4.61-.65,7.31.39,9,1.59h0a19.63,19.63,0,0,1,3.84,4.83,22,22,0,0,1,2,15.21A20.24,20.24,0,0,1,765,817a21.12,21.12,0,0,1-3.53,12.42,10.7,10.7,0,0,1,.59,2.77c.47,5.83-4,10.23-5.14,11.28A13,13,0,0,1,753,858.14a10.57,10.57,0,0,1-1,8.44,10.79,10.79,0,0,1-8.44,4.75c-12.11.49-24.78.69-38,.53-16.49-.21-32.17-1-46.95-2.11a30.16,30.16,0,0,0-7.38-3.7,30.49,30.49,0,0,0-10.55-1.58,160.55,160.55,0,0,1-44.84-.52s-5.1-.8-36.39-7.92c-.64-.07-22.06-2.32-36.4-4.22-10.64-1.41-25.22-3.66-42.72-7.38a186.64,186.64,0,0,1-18.46-10.55,183,183,0,0,1-18.47-13.72,55.63,55.63,0,0,1-29-3.69,55,55,0,0,1-18.46-12.66,73.54,73.54,0,0,0-32.17-3.69c-22.14-6.64-40.78-13.57-55.39-19.52-31.47-12.81-44.22-21.06-53.8-34.28a74.26,74.26,0,0,1-7.39-12.66l-32.7-28.48c-2.89-2.46-13.58-12.14-14.24-26.91-.72-16.08,11-27.12,16.88-32.7a62.58,62.58,0,0,1,25.32-14.24c5.32-1.66,16.45-2,38.5-2.64,14.89-.42,18.63-.28,23.74,1.58,7.38,2.7,12.13,7,19,13.19,8.31,7.51,7.14,8.6,18.46,19.52,6.43,6.2,11.78,10.65,19.52,13.71A48.55,48.55,0,0,0,368.24,678.78Z" transform="translate(-181.83 0.5)"/><path class="cls-4" d="M338.82,501.88c-3.12-8.06,1.75-20.88,11.08-22.15,7-1,14.8,4.71,15.83,11.86,1,6.8-4.65,11.92-6.33,13.45-2,1.8-6.39,5.83-11.87,4.75C341.55,508.62,339,502.3,338.82,501.88Z" transform="translate(-181.83 0.5)"/><path class="cls-4" d="M399.48,499.24a11.51,11.51,0,0,1,2.9-1.05c7.15-2,10.06.36,12.66-1.58,2.85-2.13,3.31-7.84,1.06-11.34a9.18,9.18,0,0,0-4.48-3.43c-7.54-3.2-15.86-.52-19.26.79L394,509.27C394.28,506.83,395.35,501.61,399.48,499.24Z" transform="translate(-181.83 0.5)"/><path class="cls-4" d="M361.77,543.81c-1.89-2.68,3.51-7.62,9-19,4.65-9.69,5-15,7.38-15s2.95,5.05,7.91,14c6.19,11.13,12.23,15.71,10.55,18.46-.56.93-2.09,1.78-6.33,1.32l-7.18-6.46a5.7,5.7,0,0,0-4.42-2.24,5.47,5.47,0,0,0-4.75,2.9q-2.89,3.56-5.8,7.12C363.83,545.52,362.36,544.65,361.77,543.81Z" transform="translate(-181.83 0.5)"/><path class="cls-4" d="M345.42,575.2c1.12,10.78,20.88,15.28,22.15,15.56,5.27,1.14,9.31.9,14.77.53,12.77-.87,26.58-4.58,26.37-6.86-.08-1-2.65-2.08-14.24-2.67a73.31,73.31,0,0,1-22.42-2.08c-9.12-2.33-11.64-5-12.39-5.8-4.49-5-3.25-10.78-5.8-11.34C350.87,561.88,344.75,568.77,345.42,575.2Z" transform="translate(-181.83 0.5)"/></g></svg>