<?xml version="1.0" encoding="UTF-8" standalone="no"?>
<!DOCTYPE svg PUBLIC "-//W3C//DTD SVG 1.1//EN" "http://www.w3.org/Graphics/SVG/1.1/DTD/svg11.dtd">
<svg version="1.1" xmlns="http://www.w3.org/2000/svg" xmlns:xlink="http://www.w3.org/1999/xlink" preserveAspectRatio="xMidYMid meet" viewBox="0 0 640 640" width="80" height="80"><defs><path d="M346.43 298.49C346.43 320.57 328.51 338.49 306.43 338.49C284.35 338.49 266.43 320.57 266.43 298.49C266.43 276.42 284.35 258.49 306.43 258.49C328.51 258.49 346.43 276.42 346.43 298.49Z" id="d2iXYv560I"/><path d="M338.93 298.49C338.93 316.43 324.37 330.99 306.43 330.99C288.49 330.99 273.93 316.43 273.93 298.49C273.93 280.55 288.49 265.99 306.43 265.99C324.37 265.99 338.93 280.55 338.93 298.49Z" id="cAAKhtcha"/><path d="M331.93 298.49C331.93 312.57 320.5 323.99 306.43 323.99C292.35 323.99 280.93 312.57 280.93 298.49C280.93 284.42 292.35 272.99 306.43 272.99C320.5 272.99 331.93 284.42 331.93 298.49Z" id="a3qht3EtJ8"/></defs><g><g><g><use xlink:href="#d2iXYv560I" opacity="1" fill="#0affa6" fill-opacity="1"/></g><g><use xlink:href="#cAAKhtcha" opacity="1" fill="#6e1fc0" fill-opacity="1"/></g><g><use xlink:href="#a3qht3EtJ8" opacity="1" fill="#0affa6" fill-opacity="1"/></g></g></g></svg>